<svg width="33" height="32" viewBox="0 0 33 32" fill="none" xmlns="http://www.w3.org/2000/svg">
<g clip-path="url(#clip0_4666_11864)">
<path d="M19.0404 20.464C19.1537 20.576 19.1537 20.7587 19.0404 20.872C18.4204 21.488 17.4484 21.788 16.0657 21.788L16.0551 21.7853L16.0444 21.788C14.6631 21.788 13.6897 21.488 13.0697 20.8707C12.9564 20.7587 12.9564 20.576 13.0697 20.464C13.1817 20.352 13.3657 20.352 13.4791 20.464C13.9844 20.9667 14.8231 21.212 16.0444 21.212L16.0551 21.2147L16.0657 21.212C17.2857 21.212 18.1244 20.9667 18.6311 20.464C18.7444 20.352 18.9284 20.352 19.0404 20.464ZM14.4537 17.24C14.4537 16.564 13.9017 16.0147 13.2244 16.0147C12.5457 16.0147 11.9937 16.564 11.9937 17.24C11.9937 17.9147 12.5457 18.464 13.2244 18.464C13.9017 18.4653 14.4537 17.916 14.4537 17.24ZM32.0564 16C32.0564 24.836 24.8924 32 16.0564 32C7.2204 32 0.0563965 24.836 0.0563965 16C0.0563965 7.164 7.2204 0 16.0564 0C24.8924 0 32.0564 7.164 32.0564 16ZM25.3897 15.828C25.3897 14.6933 24.4631 13.7707 23.3231 13.7707C22.7671 13.7707 22.2631 13.9933 21.8911 14.3507C20.4831 13.424 18.5777 12.8347 16.4697 12.7587L17.6231 9.12667L20.7471 9.85867L20.7431 9.904C20.7431 10.832 21.5017 11.5867 22.4337 11.5867C23.3657 11.5867 24.1231 10.832 24.1231 9.904C24.1231 8.976 23.3657 8.22133 22.4337 8.22133C21.7177 8.22133 21.1084 8.668 20.8617 9.29333L17.4951 8.504C17.3484 8.468 17.1977 8.55333 17.1524 8.69733L15.8657 12.748C13.6577 12.7747 11.6591 13.3693 10.1884 14.3227C9.81906 13.9827 9.32973 13.7693 8.7884 13.7693C7.64973 13.7707 6.72306 14.6933 6.72306 15.828C6.72306 16.5827 7.13773 17.236 7.74706 17.5947C7.70706 17.8133 7.6804 18.036 7.6804 18.2613C7.6804 21.3027 11.4204 23.7773 16.0177 23.7773C20.6151 23.7773 24.3551 21.3027 24.3551 18.2613C24.3551 18.048 24.3324 17.8387 24.2964 17.632C24.9444 17.284 25.3897 16.6107 25.3897 15.828ZM18.8937 16.016C18.2151 16.016 17.6644 16.5653 17.6644 17.2413C17.6644 17.916 18.2164 18.4653 18.8937 18.4653C19.5711 18.4653 20.1231 17.916 20.1231 17.2413C20.1231 16.5653 19.5724 16.016 18.8937 16.016Z" fill="#F0EFEF"/>
</g>
<defs>
<clipPath id="clip0_4666_11864">
<rect width="32" height="32" fill="white" transform="translate(0.0563965)"/>
</clipPath>
</defs>
</svg>
