<svg width="33" height="32" viewBox="0 0 33 32" fill="none" xmlns="http://www.w3.org/2000/svg">
<path fill-rule="evenodd" clip-rule="evenodd" d="M16.0564 32C7.21984 32 0.0563965 24.8366 0.0563965 16C0.0563965 7.16344 7.21984 0 16.0564 0C24.893 0 32.0564 7.16344 32.0564 16C32.0564 24.8366 24.893 32 16.0564 32ZM16.7482 12.0074C15.3152 12.6034 12.4513 13.8371 8.15631 15.7083C7.45888 15.9856 7.09353 16.257 7.06027 16.5223C7.00406 16.9706 7.56554 17.1472 8.33013 17.3876C8.43414 17.4203 8.5419 17.4542 8.65238 17.4901C9.40462 17.7346 10.4165 18.0207 10.9426 18.0321C11.4197 18.0424 11.9523 17.8457 12.5403 17.4419C16.5532 14.7331 18.6247 13.3639 18.7547 13.3344C18.8465 13.3136 18.9736 13.2874 19.0598 13.3639C19.1459 13.4405 19.1375 13.5855 19.1283 13.6244C19.0727 13.8615 16.8687 15.9106 15.7281 16.971C15.3725 17.3015 15.1203 17.536 15.0688 17.5896C14.9533 17.7096 14.8355 17.823 14.7224 17.9321C14.0236 18.6058 13.4995 19.111 14.7514 19.936C15.3531 20.3325 15.8345 20.6603 16.3148 20.9874C16.8393 21.3446 17.3624 21.7009 18.0393 22.1446C18.2118 22.2576 18.3765 22.375 18.5369 22.4894C19.1473 22.9246 19.6957 23.3155 20.3732 23.2532C20.7669 23.217 21.1736 22.8468 21.3801 21.7427C21.8682 19.1335 22.8276 13.4801 23.0493 11.1505C23.0687 10.9464 23.0443 10.6851 23.0246 10.5705C23.005 10.4558 22.964 10.2924 22.815 10.1715C22.6384 10.0283 22.3659 9.99805 22.2441 10.0001C21.6899 10.01 20.8397 10.3056 16.7482 12.0074Z" fill="#F0EFEF"/>
</svg>
